<svg width="38" height="38" viewBox="0 0 38 38" fill="none" xmlns="http://www.w3.org/2000/svg">
<path d="M19 0C8.50646 0 0 8.50646 0 19C0 29.4935 8.50646 38 19 38C29.4935 38 38 29.4935 38 19C38 8.50646 29.4935 0 19 0ZM26.7286 15.5642C26.7366 15.7265 26.7385 15.8888 26.7385 16.0471C26.7385 20.995 22.9761 26.697 16.0926 26.697C14.0586 26.7004 12.0669 26.1162 10.357 25.0147C10.6479 25.0503 10.9468 25.0642 11.2496 25.0642C13.0031 25.0642 14.6161 24.4684 15.8967 23.463C15.1163 23.4477 14.3602 23.1893 13.7337 22.7238C13.1071 22.2584 12.6414 21.6091 12.4015 20.8664C12.9619 20.9729 13.5392 20.9506 14.0897 20.801C13.2427 20.6298 12.481 20.1708 11.9338 19.502C11.3866 18.8333 11.0875 17.9958 11.0873 17.1317V17.0861C11.592 17.3652 12.1699 17.5354 12.7834 17.5552C11.9894 17.0266 11.4273 16.2147 11.2121 15.2854C10.9969 14.3561 11.1448 13.3797 11.6256 12.5558C12.5656 13.7117 13.7379 14.6572 15.0665 15.3312C16.3952 16.0053 17.8505 16.3928 19.3384 16.4686C19.1493 15.6657 19.2307 14.8228 19.57 14.0709C19.9093 13.319 20.4876 12.7003 21.2148 12.3109C21.9421 11.9216 22.7776 11.7834 23.5915 11.9179C24.4053 12.0524 25.152 12.452 25.7153 13.0546C26.5528 12.8889 27.356 12.5817 28.0903 12.1461C27.8112 13.0133 27.2268 13.7496 26.4456 14.2183C27.1875 14.129 27.9119 13.9295 28.595 13.6266C28.0933 14.3784 27.4612 15.0346 26.7286 15.5642Z" fill="#FFA943"/>
</svg>
