<svg width="32" height="32" viewBox="0 0 32 32" fill="none" xmlns="http://www.w3.org/2000/svg">
<path d="M8.40482 26.3904L9.56322 27.0672C11.5167 28.2065 13.7386 28.8046 16 28.8C18.5316 28.8 21.0064 28.0493 23.1113 26.6428C25.2163 25.2363 26.8569 23.2372 27.8257 20.8983C28.7945 18.5594 29.0479 15.9858 28.5541 13.5028C28.0602 11.0199 26.8411 8.73914 25.051 6.94903C23.2609 5.15892 20.9801 3.93984 18.4972 3.44595C16.0142 2.95206 13.4406 3.20554 11.1017 4.17434C8.76277 5.14314 6.76369 6.78375 5.35721 8.88869C3.95073 10.9936 3.20002 13.4684 3.20002 16C3.19535 18.2622 3.79405 20.4847 4.93442 22.4384L5.60962 23.5968L4.56482 27.4384L8.40482 26.3904ZM0.00642141 32L2.16962 24.0512C0.744242 21.6078 -0.00462501 18.8288 2.14916e-05 16C2.14916e-05 7.1632 7.16322 0 16 0C24.8368 0 32 7.1632 32 16C32 24.8368 24.8368 32 16 32C13.1725 32.0045 10.3947 31.2563 7.95202 29.832L0.00642141 32ZM10.2256 8.49279C10.44 8.47679 10.656 8.47679 10.8704 8.48639C10.9568 8.49279 11.0432 8.50239 11.1296 8.51199C11.384 8.54079 11.664 8.69599 11.7584 8.91039C12.2352 9.99199 12.6992 11.0816 13.1472 12.1744C13.2464 12.4176 13.1872 12.7296 12.9984 13.0336C12.8686 13.2392 12.7281 13.4378 12.5776 13.6288C12.3968 13.8608 12.008 14.2864 12.008 14.2864C12.008 14.2864 11.8496 14.4752 11.9104 14.7104C11.9328 14.8 12.0064 14.9296 12.0736 15.0384L12.168 15.1904C12.5776 15.8736 13.128 16.5664 13.8 17.2192C13.992 17.4048 14.1792 17.5952 14.3808 17.7728C15.1296 18.4336 15.9776 18.9728 16.8928 19.3728L16.9008 19.376C17.0368 19.4352 17.1056 19.4672 17.304 19.552C17.4032 19.5936 17.5056 19.6304 17.6096 19.6576C17.7171 19.685 17.8303 19.6798 17.9348 19.6428C18.0393 19.6057 18.1305 19.5385 18.1968 19.4496C19.3552 18.0464 19.4608 17.9552 19.4704 17.9552V17.9584C19.5509 17.8833 19.6465 17.8264 19.7508 17.7913C19.8551 17.7563 19.9657 17.7439 20.0752 17.7552C20.1712 17.7616 20.2688 17.7792 20.3584 17.8192C21.208 18.208 22.5984 18.8144 22.5984 18.8144L23.5296 19.232C23.6864 19.3072 23.8288 19.4848 23.8336 19.656C23.84 19.7632 23.8496 19.936 23.8128 20.2528C23.7616 20.6672 23.6368 21.1648 23.512 21.4256C23.4265 21.6036 23.3131 21.7667 23.176 21.9088C23.0146 22.0783 22.8378 22.2326 22.648 22.3696C22.5823 22.419 22.5157 22.467 22.448 22.5136C22.249 22.6398 22.0445 22.7573 21.8352 22.8656C21.4233 23.0844 20.9683 23.21 20.5024 23.2336C20.2064 23.2496 19.9104 23.272 19.6128 23.256C19.6 23.256 18.704 23.1168 18.704 23.1168C16.4292 22.5184 14.3254 21.3975 12.56 19.8432C12.1984 19.5248 11.864 19.1824 11.5216 18.8416C10.0976 17.4256 9.02242 15.8976 8.36962 14.4544C8.03549 13.7461 7.855 12.975 7.84002 12.192C7.83342 11.2206 8.15097 10.2747 8.74242 9.50399C8.85922 9.35359 8.96961 9.19679 9.16002 9.01599C9.36322 8.82399 9.49121 8.72159 9.63041 8.65119C9.81549 8.55844 10.0174 8.50402 10.224 8.49119L10.2256 8.49279Z" fill="#FFA943"/>
</svg>
