<svg width="38" height="38" viewBox="0 0 38 38" fill="none" xmlns="http://www.w3.org/2000/svg">
<path d="M22.1726 18.6695L17.7274 16.5953C17.3395 16.4152 17.0208 16.6171 17.0208 17.0466V20.9534C17.0208 21.3829 17.3395 21.5848 17.7274 21.4047L22.1706 19.3305C22.5605 19.1484 22.5605 18.8516 22.1726 18.6695ZM19 0C8.50646 0 0 8.50646 0 19C0 29.4935 8.50646 38 19 38C29.4935 38 38 29.4935 38 19C38 8.50646 29.4935 0 19 0ZM19 26.7188C9.27438 26.7188 9.10417 25.842 9.10417 19C9.10417 12.158 9.27438 11.2812 19 11.2812C28.7256 11.2812 28.8958 12.158 28.8958 19C28.8958 25.842 28.7256 26.7188 19 26.7188Z" fill="#FFA943"/>
</svg>
