<svg width="30" height="29" viewBox="0 0 30 29" fill="none" xmlns="http://www.w3.org/2000/svg">
<path d="M14.792 16.2037C15.5717 16.2037 16.2037 15.5716 16.2037 14.792C16.2037 14.0123 15.5717 13.3802 14.792 13.3802C14.0124 13.3802 13.3803 14.0123 13.3803 14.792C13.3803 15.5716 14.0124 16.2037 14.792 16.2037Z" fill="white"/>
<path d="M20.439 16.2037C21.2187 16.2037 21.8507 15.5716 21.8507 14.792C21.8507 14.0123 21.2187 13.3802 20.439 13.3802C19.6593 13.3802 19.0273 14.0123 19.0273 14.792C19.0273 15.5716 19.6593 16.2037 20.439 16.2037Z" fill="white"/>
<path d="M9.1453 16.2037C9.92497 16.2037 10.557 15.5716 10.557 14.792C10.557 14.0123 9.92497 13.3802 9.1453 13.3802C8.36563 13.3802 7.73358 14.0123 7.73358 14.792C7.73358 15.5716 8.36563 16.2037 9.1453 16.2037Z" fill="white"/>
<path d="M24.7731 4.81118C22.4567 2.47973 19.3995 1.02949 16.1286 0.710484C12.8576 0.391477 9.57783 1.22369 6.85468 3.06366C4.13153 4.90362 2.13567 7.63603 1.21118 10.7898C0.286683 13.9436 0.491499 17.3211 1.79031 20.3401C1.92568 20.6207 1.9701 20.9365 1.91737 21.2436L0.675057 27.2151C0.627194 27.4441 0.636968 27.6813 0.703499 27.9056C0.770031 28.1298 0.891235 28.334 1.05622 28.4998C1.19147 28.634 1.3525 28.7395 1.52962 28.8099C1.70673 28.8803 1.89626 28.914 2.08677 28.9092H2.36912L8.41126 27.6951C8.71835 27.6582 9.02976 27.702 9.31476 27.8222C12.3337 29.121 15.7112 29.3258 18.865 28.4013C22.0188 27.4768 24.7512 25.4809 26.5912 22.7578C28.4311 20.0346 29.2633 16.7549 28.9443 13.4839C28.6253 10.2129 27.1751 7.15574 24.8436 4.83941L24.7731 4.81118ZM25.9448 16.6131C25.6688 18.2987 25.014 19.8997 24.0299 21.2957C23.0457 22.6916 21.7577 23.8462 20.2628 24.6724C18.768 25.4987 17.1052 25.9751 15.3996 26.0658C13.694 26.1566 11.99 25.8593 10.4159 25.1964C9.85762 24.9589 9.25791 24.8342 8.65125 24.8293C8.38624 24.8312 8.12184 24.8548 7.86069 24.8999L3.87965 25.7046L4.68433 21.7235C4.8446 20.8614 4.74128 19.9709 4.38787 19.1683C3.72492 17.5942 3.42763 15.8903 3.51838 14.1847C3.60914 12.4791 4.08557 10.8163 4.91182 9.3214C5.73807 7.82654 6.89262 6.53855 8.28858 5.55438C9.68454 4.5702 11.2855 3.91547 12.9711 3.63945C14.7404 3.34909 16.5533 3.48413 18.2601 4.03341C19.9668 4.58269 21.5182 5.53042 22.786 6.79822C24.0538 8.06602 25.0015 9.61744 25.5508 11.3242C26.1001 13.0309 26.2351 14.8439 25.9448 16.6131Z" fill="white"/>
</svg>
