<svg width="38" height="38" viewBox="0 0 38 38" fill="none" xmlns="http://www.w3.org/2000/svg">
<path d="M19 14.288C18.0681 14.288 17.157 14.5644 16.3822 15.0821C15.6073 15.5999 15.0033 16.3358 14.6467 17.1968C14.29 18.0578 14.1967 19.0052 14.3785 19.9193C14.5604 20.8333 15.0091 21.6729 15.6681 22.3319C16.3271 22.9909 17.1667 23.4396 18.0807 23.6215C18.9948 23.8033 19.9422 23.71 20.8032 23.3533C21.6642 22.9967 22.4001 22.3927 22.9179 21.6178C23.4356 20.843 23.712 19.9319 23.712 19C23.712 18.3812 23.5901 17.7685 23.3533 17.1968C23.1165 16.6251 22.7694 16.1057 22.3319 15.6681C21.8943 15.2306 21.3749 14.8835 20.8032 14.6467C20.2315 14.4099 19.6188 14.288 19 14.288ZM37.867 9.633C37.857 8.16574 37.5868 6.71189 37.069 5.339C36.6876 4.33439 36.0976 3.42208 35.3377 2.66225C34.5779 1.90243 33.6656 1.31236 32.661 0.931C31.2881 0.413181 29.8343 0.142996 28.367 0.133C25.916 -1.3411e-07 25.194 0 19 0C12.806 0 12.084 -1.3411e-07 9.633 0.133C8.16574 0.142996 6.71189 0.413181 5.339 0.931C4.33439 1.31236 3.42208 1.90243 2.66225 2.66225C1.90243 3.42208 1.31236 4.33439 0.931 5.339C0.413181 6.71189 0.142996 8.16574 0.133 9.633C-1.3411e-07 12.084 0 12.806 0 19C0 25.194 -1.3411e-07 25.916 0.133 28.367C0.153451 29.8394 0.423271 31.2977 0.931 32.68C1.31067 33.68 1.90024 34.587 2.66 35.34C3.41657 36.1044 4.33084 36.6944 5.339 37.069C6.71189 37.5868 8.16574 37.857 9.633 37.867C12.084 38 12.806 38 19 38C25.194 38 25.916 38 28.367 37.867C29.8343 37.857 31.2881 37.5868 32.661 37.069C33.6692 36.6944 34.5834 36.1044 35.34 35.34C36.0998 34.587 36.6893 33.68 37.069 32.68C37.5863 31.3004 37.8565 29.8404 37.867 28.367C38 25.916 38 25.194 38 19C38 12.806 38 12.084 37.867 9.633ZM33.041 24.833C32.98 26.0055 32.7298 27.1604 32.3 28.253C31.9311 29.1644 31.3828 29.9923 30.6876 30.6876C29.9923 31.3828 29.1644 31.9311 28.253 32.3C27.1501 32.7058 25.9887 32.9304 24.814 32.965H13.186C12.0113 32.9304 10.8499 32.7058 9.747 32.3C8.8048 31.9499 7.95393 31.3913 7.258 30.666C6.56957 29.9844 6.0379 29.161 5.7 28.253C5.29256 27.1512 5.07415 25.9885 5.054 24.814V19V13.186C5.07415 12.0115 5.29256 10.8488 5.7 9.747C6.05013 8.8048 6.60872 7.95393 7.334 7.258C8.01863 6.57328 8.8412 6.04218 9.747 5.7C10.8499 5.29417 12.0113 5.0696 13.186 5.035H24.814C25.9887 5.0696 27.1501 5.29417 28.253 5.7C29.1952 6.05013 30.0461 6.60872 30.742 7.334C31.4304 8.01562 31.9621 8.83905 32.3 9.747C32.7058 10.8499 32.9304 12.0113 32.965 13.186V19C32.965 22.914 33.098 23.313 33.041 24.814V24.833ZM30.001 10.697C29.7748 10.0833 29.4181 9.52592 28.9556 9.06341C28.4931 8.60089 27.9357 8.24422 27.322 8.018C26.4793 7.72589 25.5918 7.5844 24.7 7.6H13.3C12.4037 7.60876 11.516 7.776 10.678 8.094C10.0737 8.30995 9.52222 8.65205 9.06031 9.09758C8.5984 9.54311 8.23662 10.0819 7.999 10.678C7.72308 11.5242 7.58827 12.41 7.6 13.3V24.7C7.61884 25.5953 7.78576 26.4813 8.094 27.322C8.32022 27.9357 8.67689 28.4931 9.13941 28.9556C9.60192 29.4181 10.1593 29.7748 10.773 30.001C11.5837 30.2991 12.4367 30.4659 13.3 30.495H24.7C25.5963 30.4862 26.484 30.319 27.322 30.001C27.9357 29.7748 28.4931 29.4181 28.9556 28.9556C29.4181 28.4931 29.7748 27.9357 30.001 27.322C30.319 26.484 30.4862 25.5963 30.495 24.7V19V13.3C30.4955 12.4028 30.328 11.5135 30.001 10.678V10.697ZM19 26.258C18.0478 26.258 17.1049 26.0701 16.2254 25.7052C15.3458 25.3402 14.547 24.8053 13.8745 24.131C13.2021 23.4568 12.6692 22.6565 12.3066 21.7761C11.9439 20.8956 11.7585 19.9522 11.761 19C11.761 17.5637 12.1872 16.1597 12.9855 14.9657C13.7839 13.7717 14.9186 12.8415 16.2459 12.2927C17.5732 11.7439 19.0335 11.6013 20.442 11.8829C21.8504 12.1645 23.1436 12.8576 24.1579 13.8746C25.1722 14.8915 25.8619 16.1866 26.1398 17.5957C26.4178 19.0049 26.2713 20.4648 25.719 21.7907C25.1668 23.1166 24.2336 24.2488 23.0375 25.0441C21.8414 25.8393 20.4363 26.2618 19 26.258ZM26.6 13.167C26.18 13.1225 25.7913 12.9242 25.5088 12.6102C25.2263 12.2963 25.07 11.8889 25.07 11.4665C25.07 11.0441 25.2263 10.6367 25.5088 10.3228C25.7913 10.0088 26.18 9.81046 26.6 9.766C27.02 9.81046 27.4087 10.0088 27.6912 10.3228C27.9737 10.6367 28.13 11.0441 28.13 11.4665C28.13 11.8889 27.9737 12.2963 27.6912 12.6102C27.4087 12.9242 27.02 13.1225 26.6 13.167Z" fill="#FFA943"/>
</svg>
