<svg width="35" height="35" viewBox="0 0 35 35" fill="none" xmlns="http://www.w3.org/2000/svg">
<path d="M21.5 8.50001C21.1946 8.81156 21.0235 9.23042 21.0235 9.66667C21.0235 10.1029 21.1946 10.5218 21.5 10.8333L24.1666 13.5C24.4782 13.8054 24.8971 13.9764 25.3333 13.9764C25.7696 13.9764 26.1884 13.8054 26.5 13.5L32.7833 7.21667C33.6214 9.06866 33.8751 11.1321 33.5107 13.1319C33.1464 15.1318 32.1812 16.9731 30.7438 18.4105C29.3064 19.8479 27.4651 20.8131 25.4652 21.1774C23.4654 21.5418 21.402 21.2881 19.55 20.45L8.03331 31.9667C7.37026 32.6297 6.47099 33.0022 5.53331 33.0022C4.59562 33.0022 3.69635 32.6297 3.03331 31.9667C2.37026 31.3036 1.99777 30.4044 1.99777 29.4667C1.99777 28.529 2.37026 27.6297 3.03331 26.9667L14.55 15.45C13.7119 13.598 13.4582 11.5346 13.8225 9.53477C14.1869 7.53491 15.1521 5.6936 16.5895 4.25621C18.0269 2.81882 19.8682 1.85362 21.8681 1.48924C23.8679 1.12487 25.9313 1.37861 27.7833 2.21667L21.5166 8.48334L21.5 8.50001Z" stroke="#FEA34A" stroke-width="2" stroke-linecap="round" stroke-linejoin="round"/>
</svg>
