<svg width="40" height="40" viewBox="0 0 40 40" fill="none" xmlns="http://www.w3.org/2000/svg">
<path d="M20 36.6666C29.2047 36.6666 36.6667 29.2047 36.6667 20C36.6667 10.7952 29.2047 3.33331 20 3.33331C10.7953 3.33331 3.33333 10.7952 3.33333 20C3.33333 29.2047 10.7953 36.6666 20 36.6666Z" stroke="#FEA34A" stroke-width="2" stroke-linecap="round" stroke-linejoin="round"/>
<path d="M20 26.6666C23.6819 26.6666 26.6667 23.6819 26.6667 20C26.6667 16.3181 23.6819 13.3333 20 13.3333C16.3181 13.3333 13.3333 16.3181 13.3333 20C13.3333 23.6819 16.3181 26.6666 20 26.6666Z" stroke="#FEA34A" stroke-width="2" stroke-linecap="round" stroke-linejoin="round"/>
<path d="M8.21662 8.21661L15.2833 15.2833" stroke="#FEA34A" stroke-width="2" stroke-linecap="round" stroke-linejoin="round"/>
<path d="M24.7167 24.7167L31.7834 31.7834" stroke="#FEA34A" stroke-width="2" stroke-linecap="round" stroke-linejoin="round"/>
<path d="M24.7167 15.2833L31.7834 8.21661" stroke="#FEA34A" stroke-width="2" stroke-linecap="round" stroke-linejoin="round"/>
<path d="M24.7167 15.2832L30.6001 9.3999" stroke="#FEA34A" stroke-width="2" stroke-linecap="round" stroke-linejoin="round"/>
<path d="M8.21662 31.7834L15.2833 24.7167" stroke="#FEA34A" stroke-width="2" stroke-linecap="round" stroke-linejoin="round"/>
</svg>
