<svg width="19" height="22" viewBox="0 0 19 22" fill="none" xmlns="http://www.w3.org/2000/svg">
<path d="M9.5 0.958344C11.7875 0.958344 13.9813 1.86705 15.5988 3.48455C17.2163 5.10205 18.125 7.29585 18.125 9.58334C18.125 13.1541 15.4033 16.8954 10.075 20.8917C9.90912 21.0161 9.70735 21.0833 9.5 21.0833C9.29265 21.0833 9.09088 21.0161 8.925 20.8917C3.59667 16.8954 0.875 13.1541 0.875 9.58334C0.875 7.29585 1.7837 5.10205 3.4012 3.48455C5.0187 1.86705 7.21251 0.958344 9.5 0.958344ZM9.5 6.70834C8.7375 6.70834 8.00623 7.01124 7.46707 7.55041C6.9279 8.08958 6.625 8.82085 6.625 9.58334C6.625 10.3458 6.9279 11.0771 7.46707 11.6163C8.00623 12.1554 8.7375 12.4583 9.5 12.4583C10.2625 12.4583 10.9938 12.1554 11.5329 11.6163C12.0721 11.0771 12.375 10.3458 12.375 9.58334C12.375 8.82085 12.0721 8.08958 11.5329 7.55041C10.9938 7.01124 10.2625 6.70834 9.5 6.70834Z" fill="#EB5757"/>
</svg>
