<svg width="25" height="24" viewBox="0 0 25 24" fill="none" xmlns="http://www.w3.org/2000/svg">
<path d="M24.4619 12.049L21.8086 9.0151L22.1784 5.00252L18.2528 4.11084L16.1976 0.631104L12.5003 2.21873L8.80312 0.631104L6.7479 4.09997L2.82232 4.98078L3.19204 9.00422L0.538742 12.049L3.19204 15.0829L2.82232 19.1063L6.7479 19.998L8.80312 23.4669L12.5003 21.8684L16.1976 23.456L18.2528 19.9871L22.1784 19.0955L21.8086 15.0829L24.4619 12.049ZM9.65131 16.4095L7.06325 13.7997C6.96244 13.6991 6.88247 13.5796 6.8279 13.4481C6.77333 13.3165 6.74524 13.1755 6.74524 13.0331C6.74524 12.8907 6.77333 12.7497 6.8279 12.6181C6.88247 12.4866 6.96244 12.3671 7.06325 12.2665L7.13937 12.1904C7.56346 11.7663 8.25941 11.7663 8.68351 12.1904L10.4342 13.952L16.0345 8.3409C16.4585 7.91681 17.1545 7.91681 17.5786 8.3409L17.6547 8.41702C18.0788 8.84111 18.0788 9.52618 17.6547 9.95028L11.2172 16.4095C10.7713 16.8336 10.0863 16.8336 9.65131 16.4095Z" fill="#FEA34A"/>
</svg>
